<mxfile host="app.diagrams.net" modified="2023-04-20T18:35:08.132Z" agent="Mozilla/5.0 (Windows NT 10.0; Win64; x64) AppleWebKit/537.36 (KHTML, like Gecko) Chrome/112.0.0.0 Safari/537.36" etag="XOhUw-8gzGoqXnRgPvB7" version="21.2.1" type="google">
  <diagram name="PÃ¡gina-1" id="tGN74E9uy5ua6hobbau2">
    <mxGraphModel grid="1" page="1" gridSize="10" guides="1" tooltips="1" connect="1" arrows="1" fold="1" pageScale="1" pageWidth="1169" pageHeight="827" math="0" shadow="0">
      <root>
        <mxCell id="0" />
        <mxCell id="1" parent="0" />
        <mxCell id="1t4rSsZ1l7FVj7jVqSrM-27" style="edgeStyle=orthogonalEdgeStyle;rounded=0;orthogonalLoop=1;jettySize=auto;html=1;entryX=-0.016;entryY=0.369;entryDx=0;entryDy=0;entryPerimeter=0;" edge="1" parent="1" source="1t4rSsZ1l7FVj7jVqSrM-1" target="1t4rSsZ1l7FVj7jVqSrM-4">
          <mxGeometry relative="1" as="geometry">
            <Array as="points">
              <mxPoint x="240" y="100" />
              <mxPoint x="240" y="180" />
              <mxPoint x="269" y="180" />
            </Array>
          </mxGeometry>
        </mxCell>
        <mxCell id="1t4rSsZ1l7FVj7jVqSrM-1" value="&lt;font style=&quot;vertical-align: inherit;&quot;&gt;&lt;font style=&quot;vertical-align: inherit;&quot;&gt;Cliente&lt;/font&gt;&lt;/font&gt;" style="whiteSpace=wrap;html=1;aspect=fixed;" vertex="1" parent="1">
          <mxGeometry x="130" y="60" width="80" height="80" as="geometry" />
        </mxCell>
        <mxCell id="1t4rSsZ1l7FVj7jVqSrM-28" style="edgeStyle=orthogonalEdgeStyle;rounded=0;orthogonalLoop=1;jettySize=auto;html=1;entryX=-0.016;entryY=0.591;entryDx=0;entryDy=0;entryPerimeter=0;" edge="1" parent="1" source="1t4rSsZ1l7FVj7jVqSrM-2" target="1t4rSsZ1l7FVj7jVqSrM-4">
          <mxGeometry relative="1" as="geometry">
            <Array as="points">
              <mxPoint x="240" y="280" />
              <mxPoint x="240" y="197" />
            </Array>
          </mxGeometry>
        </mxCell>
        <mxCell id="1t4rSsZ1l7FVj7jVqSrM-2" value="&lt;font style=&quot;vertical-align: inherit;&quot;&gt;&lt;font style=&quot;vertical-align: inherit;&quot;&gt;Agente de reserva&amp;nbsp;&lt;/font&gt;&lt;/font&gt;" style="whiteSpace=wrap;html=1;aspect=fixed;" vertex="1" parent="1">
          <mxGeometry x="130" y="240" width="80" height="80" as="geometry" />
        </mxCell>
        <mxCell id="1t4rSsZ1l7FVj7jVqSrM-30" style="edgeStyle=orthogonalEdgeStyle;rounded=0;orthogonalLoop=1;jettySize=auto;html=1;entryX=0;entryY=0.5;entryDx=0;entryDy=0;" edge="1" parent="1" source="1t4rSsZ1l7FVj7jVqSrM-4" target="1t4rSsZ1l7FVj7jVqSrM-29">
          <mxGeometry relative="1" as="geometry" />
        </mxCell>
        <mxCell id="1t4rSsZ1l7FVj7jVqSrM-31" style="edgeStyle=orthogonalEdgeStyle;rounded=0;orthogonalLoop=1;jettySize=auto;html=1;entryX=0;entryY=0.5;entryDx=0;entryDy=0;" edge="1" parent="1" source="1t4rSsZ1l7FVj7jVqSrM-4" target="1t4rSsZ1l7FVj7jVqSrM-7">
          <mxGeometry relative="1" as="geometry" />
        </mxCell>
        <mxCell id="1t4rSsZ1l7FVj7jVqSrM-4" value="Pedir vuelos disponibles" style="ellipse;whiteSpace=wrap;html=1;aspect=fixed;" vertex="1" parent="1">
          <mxGeometry x="270" y="150" width="80" height="80" as="geometry" />
        </mxCell>
        <mxCell id="1t4rSsZ1l7FVj7jVqSrM-7" value="Cliente" style="whiteSpace=wrap;html=1;aspect=fixed;" vertex="1" parent="1">
          <mxGeometry x="430" y="50" width="80" height="80" as="geometry" />
        </mxCell>
        <mxCell id="1t4rSsZ1l7FVj7jVqSrM-52" style="edgeStyle=orthogonalEdgeStyle;rounded=0;orthogonalLoop=1;jettySize=auto;html=1;entryX=0.5;entryY=0;entryDx=0;entryDy=0;" edge="1" parent="1" target="1t4rSsZ1l7FVj7jVqSrM-18">
          <mxGeometry relative="1" as="geometry">
            <mxPoint x="990" y="320" as="sourcePoint" />
          </mxGeometry>
        </mxCell>
        <mxCell id="1t4rSsZ1l7FVj7jVqSrM-10" value="Realizar pagos" style="ellipse;whiteSpace=wrap;html=1;aspect=fixed;" vertex="1" parent="1">
          <mxGeometry x="955" y="150" width="70" height="70" as="geometry" />
        </mxCell>
        <mxCell id="1t4rSsZ1l7FVj7jVqSrM-11" value="" style="endArrow=classic;html=1;rounded=0;exitX=0.5;exitY=1;exitDx=0;exitDy=0;entryX=0.5;entryY=0;entryDx=0;entryDy=0;" edge="1" parent="1" source="1t4rSsZ1l7FVj7jVqSrM-4" target="1t4rSsZ1l7FVj7jVqSrM-14">
          <mxGeometry width="50" height="50" relative="1" as="geometry">
            <mxPoint x="390" y="220" as="sourcePoint" />
            <mxPoint x="321.53846153846166" y="160" as="targetPoint" />
            <Array as="points" />
          </mxGeometry>
        </mxCell>
        <mxCell id="1t4rSsZ1l7FVj7jVqSrM-35" style="edgeStyle=orthogonalEdgeStyle;rounded=0;orthogonalLoop=1;jettySize=auto;html=1;entryX=0.675;entryY=1.013;entryDx=0;entryDy=0;entryPerimeter=0;" edge="1" parent="1" source="1t4rSsZ1l7FVj7jVqSrM-14" target="1t4rSsZ1l7FVj7jVqSrM-4">
          <mxGeometry relative="1" as="geometry">
            <Array as="points">
              <mxPoint x="324" y="310" />
              <mxPoint x="324" y="310" />
            </Array>
          </mxGeometry>
        </mxCell>
        <mxCell id="1t4rSsZ1l7FVj7jVqSrM-14" value="Base de datos de vuelos disponibles" style="shape=process;whiteSpace=wrap;html=1;backgroundOutline=1;" vertex="1" parent="1">
          <mxGeometry x="220" y="330" width="180" height="30" as="geometry" />
        </mxCell>
        <mxCell id="1t4rSsZ1l7FVj7jVqSrM-62" style="edgeStyle=orthogonalEdgeStyle;rounded=0;orthogonalLoop=1;jettySize=auto;html=1;" edge="1" parent="1" source="1t4rSsZ1l7FVj7jVqSrM-18" target="1t4rSsZ1l7FVj7jVqSrM-58">
          <mxGeometry relative="1" as="geometry" />
        </mxCell>
        <mxCell id="1t4rSsZ1l7FVj7jVqSrM-18" value="Registro de reservas" style="shape=process;whiteSpace=wrap;html=1;backgroundOutline=1;" vertex="1" parent="1">
          <mxGeometry x="900" y="370" width="180" height="40" as="geometry" />
        </mxCell>
        <mxCell id="1t4rSsZ1l7FVj7jVqSrM-21" value="base de datos de pasajeros" style="shape=process;whiteSpace=wrap;html=1;backgroundOutline=1;rotation=90;" vertex="1" parent="1">
          <mxGeometry x="790" y="205" width="170" height="30" as="geometry" />
        </mxCell>
        <mxCell id="1t4rSsZ1l7FVj7jVqSrM-51" style="edgeStyle=orthogonalEdgeStyle;rounded=0;orthogonalLoop=1;jettySize=auto;html=1;exitX=0.5;exitY=0;exitDx=0;exitDy=0;entryX=0.5;entryY=0;entryDx=0;entryDy=0;" edge="1" parent="1" source="1t4rSsZ1l7FVj7jVqSrM-25" target="1t4rSsZ1l7FVj7jVqSrM-10">
          <mxGeometry relative="1" as="geometry">
            <Array as="points">
              <mxPoint x="670" y="110" />
              <mxPoint x="990" y="110" />
            </Array>
          </mxGeometry>
        </mxCell>
        <mxCell id="1t4rSsZ1l7FVj7jVqSrM-25" value="pedir datos del pasajero&amp;nbsp;" style="ellipse;whiteSpace=wrap;html=1;aspect=fixed;" vertex="1" parent="1">
          <mxGeometry x="630" y="155" width="80" height="80" as="geometry" />
        </mxCell>
        <mxCell id="1t4rSsZ1l7FVj7jVqSrM-29" value="&lt;font style=&quot;vertical-align: inherit;&quot;&gt;&lt;font style=&quot;vertical-align: inherit;&quot;&gt;Agente de reserva&amp;nbsp;&lt;/font&gt;&lt;/font&gt;" style="whiteSpace=wrap;html=1;aspect=fixed;" vertex="1" parent="1">
          <mxGeometry x="430" y="240" width="80" height="80" as="geometry" />
        </mxCell>
        <mxCell id="1t4rSsZ1l7FVj7jVqSrM-53" value="cliente" style="whiteSpace=wrap;html=1;aspect=fixed;" vertex="1" parent="1">
          <mxGeometry x="880" y="560" width="80" height="80" as="geometry" />
        </mxCell>
        <mxCell id="1t4rSsZ1l7FVj7jVqSrM-54" value="&lt;font style=&quot;vertical-align: inherit;&quot;&gt;&lt;font style=&quot;vertical-align: inherit;&quot;&gt;agente de reserva&amp;nbsp;&lt;/font&gt;&lt;/font&gt;" style="whiteSpace=wrap;html=1;aspect=fixed;" vertex="1" parent="1">
          <mxGeometry x="1030" y="560" width="80" height="80" as="geometry" />
        </mxCell>
        <mxCell id="1t4rSsZ1l7FVj7jVqSrM-60" style="edgeStyle=orthogonalEdgeStyle;rounded=0;orthogonalLoop=1;jettySize=auto;html=1;exitX=0.5;exitY=1;exitDx=0;exitDy=0;entryX=0.5;entryY=0;entryDx=0;entryDy=0;" edge="1" parent="1" source="1t4rSsZ1l7FVj7jVqSrM-58" target="1t4rSsZ1l7FVj7jVqSrM-54">
          <mxGeometry relative="1" as="geometry" />
        </mxCell>
        <mxCell id="1t4rSsZ1l7FVj7jVqSrM-61" style="edgeStyle=orthogonalEdgeStyle;rounded=0;orthogonalLoop=1;jettySize=auto;html=1;" edge="1" parent="1" source="1t4rSsZ1l7FVj7jVqSrM-58" target="1t4rSsZ1l7FVj7jVqSrM-53">
          <mxGeometry relative="1" as="geometry" />
        </mxCell>
        <mxCell id="1t4rSsZ1l7FVj7jVqSrM-58" value="dar pasajes" style="ellipse;whiteSpace=wrap;html=1;aspect=fixed;" vertex="1" parent="1">
          <mxGeometry x="960" y="440" width="60" height="60" as="geometry" />
        </mxCell>
        <mxCell id="jjpKmNIsG2WRFZOp63jG-3" value="&lt;font style=&quot;font-size: 8px;&quot;&gt;solicitud de vuelos disponibles&lt;/font&gt;" style="text;html=1;strokeColor=none;fillColor=none;align=center;verticalAlign=middle;whiteSpace=wrap;rounded=0;rotation=-90;" vertex="1" parent="1">
          <mxGeometry x="170" y="175" width="120" height="30" as="geometry" />
        </mxCell>
        <mxCell id="jjpKmNIsG2WRFZOp63jG-5" value="&lt;font style=&quot;font-size: 8px;&quot;&gt;Info. de vuelos disponibles&lt;/font&gt;" style="text;html=1;strokeColor=none;fillColor=none;align=center;verticalAlign=middle;whiteSpace=wrap;rounded=0;rotation=-90;" vertex="1" parent="1">
          <mxGeometry x="270" y="265" width="120" height="30" as="geometry" />
        </mxCell>
        <mxCell id="jjpKmNIsG2WRFZOp63jG-6" value="&lt;font style=&quot;font-size: 8px;&quot;&gt;Devolver info. de vuelos disponibles&lt;/font&gt;" style="text;html=1;strokeColor=none;fillColor=none;align=center;verticalAlign=middle;whiteSpace=wrap;rounded=0;rotation=-90;" vertex="1" parent="1">
          <mxGeometry x="335" y="170" width="130" height="30" as="geometry" />
        </mxCell>
        <mxCell id="jjpKmNIsG2WRFZOp63jG-7" value="&lt;font style=&quot;font-size: 8px;&quot;&gt;Pregunta quÃ© vuelos estÃ¡n disponibles&lt;br&gt;&lt;/font&gt;" style="text;html=1;strokeColor=none;fillColor=none;align=center;verticalAlign=middle;whiteSpace=wrap;rounded=0;rotation=-90;" vertex="1" parent="1">
          <mxGeometry x="230" y="265" width="120" height="30" as="geometry" />
        </mxCell>
        <mxCell id="jjpKmNIsG2WRFZOp63jG-8" value="&lt;font style=&quot;font-size: 8px;&quot;&gt;Info. selecciÃ³n de vuelo&lt;/font&gt;" style="text;html=1;strokeColor=none;fillColor=none;align=center;verticalAlign=middle;whiteSpace=wrap;rounded=0;" vertex="1" parent="1">
          <mxGeometry x="520" y="175" width="100" height="30" as="geometry" />
        </mxCell>
        <mxCell id="jjpKmNIsG2WRFZOp63jG-9" value="&lt;font style=&quot;font-size: 8px;&quot;&gt;formulario de datos&lt;/font&gt;" style="text;html=1;strokeColor=none;fillColor=none;align=center;verticalAlign=middle;whiteSpace=wrap;rounded=0;" vertex="1" parent="1">
          <mxGeometry x="760" y="200" width="80" height="30" as="geometry" />
        </mxCell>
        <mxCell id="jjpKmNIsG2WRFZOp63jG-15" value="" style="endArrow=classic;html=1;rounded=0;exitX=1;exitY=0.5;exitDx=0;exitDy=0;entryX=0.015;entryY=0.323;entryDx=0;entryDy=0;entryPerimeter=0;" edge="1" parent="1" source="1t4rSsZ1l7FVj7jVqSrM-7" target="1t4rSsZ1l7FVj7jVqSrM-25">
          <mxGeometry width="50" height="50" relative="1" as="geometry">
            <mxPoint x="570" y="140" as="sourcePoint" />
            <mxPoint x="740" y="90" as="targetPoint" />
            <Array as="points">
              <mxPoint x="570" y="90" />
              <mxPoint x="570" y="130" />
              <mxPoint x="570" y="180" />
              <mxPoint x="620" y="180" />
            </Array>
          </mxGeometry>
        </mxCell>
        <mxCell id="jjpKmNIsG2WRFZOp63jG-17" value="&lt;font style=&quot;font-size: 8px;&quot;&gt;Formulario con info. de pasajeros&lt;/font&gt;" style="text;html=1;strokeColor=none;fillColor=none;align=center;verticalAlign=middle;whiteSpace=wrap;rounded=0;" vertex="1" parent="1">
          <mxGeometry x="760" y="155" width="80" height="30" as="geometry" />
        </mxCell>
        <mxCell id="jjpKmNIsG2WRFZOp63jG-18" value="" style="endArrow=classic;html=1;rounded=0;entryX=1;entryY=0.438;entryDx=0;entryDy=0;entryPerimeter=0;" edge="1" parent="1" target="1t4rSsZ1l7FVj7jVqSrM-25">
          <mxGeometry width="50" height="50" relative="1" as="geometry">
            <mxPoint x="860" y="190" as="sourcePoint" />
            <mxPoint x="660" y="230" as="targetPoint" />
          </mxGeometry>
        </mxCell>
        <mxCell id="jjpKmNIsG2WRFZOp63jG-19" value="" style="endArrow=classic;html=1;rounded=0;entryX=0.408;entryY=1.024;entryDx=0;entryDy=0;entryPerimeter=0;" edge="1" parent="1" target="1t4rSsZ1l7FVj7jVqSrM-21">
          <mxGeometry width="50" height="50" relative="1" as="geometry">
            <mxPoint x="710" y="204.43" as="sourcePoint" />
            <mxPoint x="760" y="204.43" as="targetPoint" />
          </mxGeometry>
        </mxCell>
        <mxCell id="jjpKmNIsG2WRFZOp63jG-20" value="" style="endArrow=classic;html=1;rounded=0;exitX=1;exitY=0.5;exitDx=0;exitDy=0;" edge="1" parent="1" source="1t4rSsZ1l7FVj7jVqSrM-29">
          <mxGeometry width="50" height="50" relative="1" as="geometry">
            <mxPoint x="570" y="280" as="sourcePoint" />
            <mxPoint x="630" y="206" as="targetPoint" />
            <Array as="points">
              <mxPoint x="570" y="280" />
              <mxPoint x="570" y="206" />
            </Array>
          </mxGeometry>
        </mxCell>
        <mxCell id="jjpKmNIsG2WRFZOp63jG-21" value="&lt;font style=&quot;font-size: 8px;&quot;&gt;Info. MÃ©todo de Pago&lt;/font&gt;" style="text;html=1;strokeColor=none;fillColor=none;align=center;verticalAlign=middle;whiteSpace=wrap;rounded=0;" vertex="1" parent="1">
          <mxGeometry x="800" y="85" width="90" height="30" as="geometry" />
        </mxCell>
        <mxCell id="jjpKmNIsG2WRFZOp63jG-22" value="&lt;font style=&quot;font-size: 8px;&quot;&gt;Info. de Pago&lt;/font&gt;" style="text;html=1;strokeColor=none;fillColor=none;align=center;verticalAlign=middle;whiteSpace=wrap;rounded=0;" vertex="1" parent="1">
          <mxGeometry x="1035" y="155" width="70" height="30" as="geometry" />
        </mxCell>
        <mxCell id="jjpKmNIsG2WRFZOp63jG-23" value="Registro de pagos" style="shape=process;whiteSpace=wrap;html=1;backgroundOutline=1;" vertex="1" parent="1">
          <mxGeometry x="1130" y="165" width="180" height="40" as="geometry" />
        </mxCell>
        <mxCell id="jjpKmNIsG2WRFZOp63jG-24" value="" style="endArrow=classic;html=1;rounded=0;entryX=-0.006;entryY=0.386;entryDx=0;entryDy=0;entryPerimeter=0;" edge="1" parent="1" target="jjpKmNIsG2WRFZOp63jG-23">
          <mxGeometry width="50" height="50" relative="1" as="geometry">
            <mxPoint x="1025" y="180" as="sourcePoint" />
            <mxPoint x="1075" y="130" as="targetPoint" />
            <Array as="points">
              <mxPoint x="1060" y="180" />
            </Array>
          </mxGeometry>
        </mxCell>
        <mxCell id="jjpKmNIsG2WRFZOp63jG-26" value="" style="edgeStyle=orthogonalEdgeStyle;rounded=0;orthogonalLoop=1;jettySize=auto;html=1;" edge="1" parent="1" target="1t4rSsZ1l7FVj7jVqSrM-18">
          <mxGeometry relative="1" as="geometry">
            <mxPoint x="990" y="340" as="sourcePoint" />
          </mxGeometry>
        </mxCell>
        <mxCell id="jjpKmNIsG2WRFZOp63jG-25" value="Confirmar reserva" style="ellipse;whiteSpace=wrap;html=1;aspect=fixed;" vertex="1" parent="1">
          <mxGeometry x="955" y="260" width="70" height="70" as="geometry" />
        </mxCell>
        <mxCell id="jjpKmNIsG2WRFZOp63jG-30" value="" style="endArrow=classic;html=1;rounded=0;entryX=0.5;entryY=0;entryDx=0;entryDy=0;exitX=0.5;exitY=1;exitDx=0;exitDy=0;" edge="1" parent="1" source="1t4rSsZ1l7FVj7jVqSrM-10" target="jjpKmNIsG2WRFZOp63jG-25">
          <mxGeometry width="50" height="50" relative="1" as="geometry">
            <mxPoint x="850" y="330" as="sourcePoint" />
            <mxPoint x="900" y="280" as="targetPoint" />
          </mxGeometry>
        </mxCell>
        <mxCell id="jjpKmNIsG2WRFZOp63jG-31" value="&lt;span style=&quot;font-size: 8px;&quot;&gt;Info. Pago exitoso&lt;br&gt;&lt;/span&gt;" style="text;html=1;strokeColor=none;fillColor=none;align=center;verticalAlign=middle;whiteSpace=wrap;rounded=0;" vertex="1" parent="1">
          <mxGeometry x="990" y="220" width="70" height="30" as="geometry" />
        </mxCell>
        <mxCell id="jjpKmNIsG2WRFZOp63jG-32" value="&lt;span style=&quot;font-size: 8px;&quot;&gt;Info. de Reserva&lt;br&gt;&lt;/span&gt;" style="text;html=1;strokeColor=none;fillColor=none;align=center;verticalAlign=middle;whiteSpace=wrap;rounded=0;" vertex="1" parent="1">
          <mxGeometry x="990" y="330" width="70" height="30" as="geometry" />
        </mxCell>
      </root>
    </mxGraphModel>
  </diagram>
</mxfile>
